<?xml version="1.0" encoding="UTF-8" standalone="no"?>
<svg
   xmlns:svg="http://www.w3.org/2000/svg"
   xmlns="http://www.w3.org/2000/svg"
   version="1.1"
   width="491.70081"
   height="296.5123"
   id="svg6739">
  <defs
     id="defs6741" />
  <g
     transform="translate(-104.1496,-384.10603)"
     id="layer1">
    <path
       d="m 570.31851,633.91327 3.78931,0 0,-9.53078 c 0,-1.74388 0.88593,-3.33235 2.56454,-3.33235 1.40816,0 2.01744,0.97919 2.01744,2.93445 l 0,9.92868 3.78931,0 0,-9.53078 c 0,-1.74388 0.88593,-3.33235 2.56454,-3.33235 1.40506,0 2.01744,0.97919 2.01744,2.93445 l 0,9.92868 3.78931,0 0,-9.71419 c 0,-3.82039 -1.10043,-6.2637 -4.52293,-6.2637 -2.32207,0 -3.45047,1.40506 -4.21517,2.50549 -0.45695,-0.85485 -1.3118,-2.50549 -3.97271,-2.50549 -2.16665,0 -3.39141,1.49831 -3.9696,2.71686 l -0.0621,0 c 0,-0.82376 -0.0933,-1.64752 -0.12125,-2.47438 l -3.78931,0 c 0.0621,0.58128 0.12125,1.43613 0.12125,2.56765 l 0,13.16776 z m -4.24222,-15.73418 -3.7893,0 0,9.01165 c 0,2.01744 -0.5813,3.85148 -2.59563,3.85148 -1.58846,0 -2.25991,-1.01028 -2.25991,-3.4225 l 0,-9.44063 -3.7893,0 0,10.14317 c 0,3.17692 1.06934,5.83471 4.64415,5.83471 2.47129,0 3.45359,-1.4952 4.18409,-2.65779 l -0.0311,-0.0311 0.0933,0.0311 c 0,0.79578 0.0901,1.61954 0.12438,2.41533 l 3.54062,0 c -0.0901,-0.70253 -0.12125,-1.61955 -0.12125,-2.59874 l 0,-13.13668 z m -23.97334,15.73418 3.7893,0 0,-8.61376 c 0,-2.93445 1.7128,-3.88257 3.26707,-3.88257 0.39789,0 0.73673,0.0621 1.06934,0.15543 l 0,-3.54684 c -0.21139,-0.028 -0.39479,-0.0901 -0.63725,-0.0901 -2.35627,0 -3.54684,1.8931 -4.0069,3.11476 l -0.0591,0 c 0,-0.945 -0.0901,-1.92419 -0.12438,-2.87229 l -3.41939,0 c 0.0933,0.70252 0.12125,1.62265 0.12125,2.59874 l 0,13.13667 z m -10.3763,-15.73418 -2.50549,0 0,2.77904 2.50549,0 0,8.61686 c 0,3.29815 1.59157,4.58198 4.39857,4.58198 1.13152,0 1.95839,-0.24246 2.53658,-0.51601 l 0,-2.69199 c -0.27356,0.15231 -0.7647,0.33882 -1.43304,0.33882 -1.10354,0 -1.71281,-0.48804 -1.71281,-2.16976 l 0,-8.1599 3.14585,0 0,-2.77904 -3.14585,0 0,-4.39857 -3.7893,1.15947 0,3.2391 z m -18.1722,15.73418 3.7862,0 0,-9.16398 c 0,-2.01743 0.70252,-3.69915 2.692,-3.69915 1.55426,0 2.16665,1.01028 2.16665,3.4256 l 0,9.43753 3.7893,0 0,-10.14316 c 0,-3.17693 -1.06934,-5.83473 -4.64415,-5.83473 -2.56765,0 -3.63699,1.71281 -4.1841,2.6578 l 0.028,0 -0.0901,0 c 0,-0.79267 -0.0901,-1.61955 -0.12437,-2.41532 l -3.54373,0 c 0.0933,0.70252 0.12438,1.62265 0.12438,2.59873 l 0,13.13668 z m -12.9598,-9.22583 c 0,-2.07961 0.82687,-4.1872 2.81322,-4.1872 1.7097,0 2.62362,1.40817 2.62362,4.1872 l -5.43684,0 z m 8.12571,5.46792 c -0.69941,0.51912 -1.80295,1.22165 -4.12191,1.22165 -2.93446,0 -4.0038,-1.61956 -4.0038,-4.30533 l 9.1049,0 0,-0.73361 c 0,-6.41601 -2.90336,-8.40238 -6.29168,-8.40238 -4.0069,0 -6.47818,3.63389 -6.47818,8.34022 0,4.24625 2.19773,7.88325 7.27086,7.88325 2.25991,0 3.91055,-0.67457 4.70322,-1.01028 l -0.18341,-2.99352 z m -25.56336,3.75791 10.72445,0 0,-2.87229 -6.81391,0 6.59942,-9.62404 0,-3.23908 -10.29547,0 0,2.87228 6.50927,0 -6.72376,9.59605 0,3.26708 z m -15.91074,0 3.7862,0 0,-9.16398 c 0,-2.01743 0.70564,-3.69915 2.68889,-3.69915 1.55737,0 2.16976,1.01028 2.16976,3.4256 l 0,9.43753 3.7893,0 0,-10.14316 c 0,-3.17693 -1.06934,-5.83473 -4.64415,-5.83473 -2.56765,0 -3.63699,1.71281 -4.18409,2.6578 l 0.028,0 -0.0901,0 c 0,-0.79267 -0.0901,-1.61955 -0.12438,-2.41532 l -3.54373,0 c 0.0933,0.70252 0.12437,1.62265 0.12437,2.59873 l 0,13.13668 z m -12.95949,-9.22583 c 0,-2.07961 0.82688,-4.1872 2.81323,-4.1872 1.7097,0 2.62671,1.40817 2.62671,4.1872 l -5.43994,0 z m 8.12572,5.46792 c -0.69942,0.51912 -1.80295,1.22165 -4.12192,1.22165 -2.93446,0 -4.0038,-1.61956 -4.0038,-4.30533 l 9.10492,0 0,-0.73361 c 0,-6.41601 -2.90338,-8.40238 -6.29169,-8.40238 -4.0069,0 -6.47819,3.63389 -6.47819,8.34022 0,4.24625 2.19774,7.88325 7.27086,7.88325 2.25992,0 3.90744,-0.67457 4.70323,-1.01028 l -0.18341,-2.99352 z m -28.13382,3.75791 3.78932,0 0,-9.16398 c 0,-2.01743 0.70252,-3.69915 2.68888,-3.69915 1.55738,0 2.16665,1.01028 2.16665,3.4256 l 0,9.43753 3.7893,0 0,-10.14316 c 0,-3.17693 -1.06933,-5.83473 -4.64415,-5.83473 -2.35006,0 -3.23598,1.28383 -3.90743,2.25991 l -0.0933,0 0,-9.19505 -3.78932,0 0,22.91303 z m -3.44953,-3.39141 c -0.51603,0.33882 -1.77187,0.7647 -2.68889,0.7647 -2.90338,0 -4.30533,-2.25992 -4.30533,-5.19438 0,-3.36032 1.24964,-5.28451 4.12503,-5.28451 1.03826,0 1.98325,0.42587 2.6578,0.7647 l 0.21139,-2.99663 c -0.70254,-0.27355 -2.10759,-0.64036 -3.29817,-0.64036 -5.28451,0 -7.60658,3.63699 -7.60658,8.12573 0,4.46075 2.19773,8.09773 7.3921,8.09773 1.52628,0 2.8412,-0.30775 3.72713,-0.64347 l -0.21448,-2.99351 z m -23.43464,-5.83442 c 0,-2.07961 0.82376,-4.1872 2.81011,-4.1872 1.7128,0 2.62671,1.40817 2.62671,4.1872 l -5.43682,0 z m 8.12882,5.46792 c -0.70563,0.51912 -1.80606,1.22165 -4.12813,1.22165 -2.93135,0 -4.00069,-1.61956 -4.00069,-4.30533 l 9.10179,0 0,-0.73361 c 0,-6.41601 -2.90337,-8.40238 -6.29168,-8.40238 -4.0038,0 -6.47819,3.63389 -6.47819,8.34022 0,4.24625 2.19774,7.88325 7.27398,7.88325 2.2599,0 3.91054,-0.67457 4.70321,-1.01028 l -0.18029,-2.99352 z m -24.99295,-8.27867 0,-6.29478 1.58535,0 c 2.20085,0 3.48468,0.61238 3.48468,3.0557 0,2.16975 -1.40506,3.23908 -3.48468,3.23908 l -1.58535,0 z m -3.91053,12.03627 3.91053,0 0,-9.16398 0.88283,0 c 1.43614,0 2.44641,0.55021 2.96244,2.22883 l 2.11068,6.93515 4.15613,0 -2.78215,-8.12572 c -0.66834,-1.98636 -1.56049,-2.35316 -2.35005,-2.4744 l 0,-0.0932 c 2.38114,-0.3668 4.12192,-2.22881 4.12192,-5.01095 0,-3.91055 -2.56766,-5.62023 -6.35385,-5.62023 l -6.65848,0 0,21.32456 z m -23.17477,-0.5185 c 0.78957,0.30462 2.41222,0.7647 4.36749,0.7647 3.41939,0 5.86581,-1.7439 5.86581,-4.64417 0,-1.83403 -0.97918,-2.71996 -2.93446,-3.97271 l -1.86512,-1.19056 c -1.09732,-0.70254 -1.76875,-1.1626 -1.76875,-2.01744 0,-0.945 0.64035,-1.5294 2.16665,-1.5294 1.37707,0 2.38425,0.33883 3.33235,0.70564 l 0.21137,-2.93446 c -0.3637,-0.12125 -1.92417,-0.64037 -3.94162,-0.64037 -3.32613,0 -5.43372,2.291 -5.43372,4.46075 0,2.4744 1.73767,3.48156 3.32924,4.42966 l 1.55738,0.91392 c 1.37397,0.79578 1.68172,1.37708 1.68172,1.98946 0,1.22166 -1.07245,1.55737 -2.44642,1.55737 -1.77187,0 -3.33235,-0.79577 -3.94163,-1.03825 l -0.18029,3.14585 z m -12.35115,-8.70702 c 0,-2.07961 0.82687,-4.1872 2.81323,-4.1872 1.70969,0 2.62671,1.40817 2.62671,4.1872 l -5.43994,0 z m 8.12882,5.46792 c -0.70253,0.51912 -1.80295,1.22165 -4.12503,1.22165 -2.93446,0 -4.00379,-1.61956 -4.00379,-4.30533 l 9.1049,0 0,-0.73361 c 0,-6.41601 -2.90026,-8.40238 -6.29167,-8.40238 -4.0038,0 -6.4782,3.63389 -6.4782,8.34022 0,4.24625 2.20085,7.88325 7.27087,7.88325 2.2599,0 3.91054,-0.67457 4.70322,-1.01028 l -0.1803,-2.99352 z m -19.85453,3.75946 3.7893,0 0,-22.91303 -3.7893,0 0,22.91303 z m -8.34301,-6.8136 c 0,2.81011 -0.82686,4.49184 -3.08678,4.49184 -1.46411,0 -2.41222,-0.97919 -2.41222,-2.41534 0,-2.29099 1.92419,-2.96244 5.16329,-2.96244 l 0.33571,0 0,0.88594 z m -7.23978,-4.9519 c 0.7305,-0.60928 2.41223,-1.52629 4.30843,-1.52629 2.16665,0 2.93135,1.43925 2.93135,2.99663 l 0,0.57818 -0.7647,0 c -4.79646,0 -8.27803,1.06934 -8.27803,5.34669 0,2.93445 2.2599,4.61306 4.70322,4.61306 2.26301,0 3.45358,-1.10042 4.40168,-2.38113 l 0.0591,0 c 0,0.76158 0.0311,1.52628 0.21449,2.13556 l 3.4225,0 c -0.0932,-0.60928 -0.21449,-1.64753 -0.21449,-2.77903 l 0,-6.87297 c 0,-3.94163 -1.13151,-6.32276 -6.01813,-6.32276 -2.41533,0 -3.91053,0.67143 -4.97987,1.15947 l 0.21449,3.05259 z m -17.74788,11.76395 3.78931,0 0,-9.16398 c 0,-2.01743 0.70252,-3.69915 2.68889,-3.69915 1.55737,0 2.16975,1.01028 2.16975,3.4256 l 0,9.43753 3.7862,0 0,-10.14316 c 0,-3.17693 -1.06934,-5.83473 -4.64415,-5.83473 -2.56455,0 -3.63389,1.71281 -4.18409,2.6578 l 0.028,0 -0.0901,0 c 0,-0.79267 -0.0901,-1.61955 -0.12125,-2.41532 l -3.54372,0 c 0.0901,0.70252 0.12125,1.62265 0.12125,2.59873 l 0,13.13668 z m -4.33485,-15.73418 -3.7862,0 0,9.01165 c 0,2.01744 -0.5813,3.85148 -2.59874,3.85148 -1.58846,0 -2.2599,-1.01028 -2.2599,-3.4225 l 0,-9.44063 -3.78931,0 0,10.14317 c 0,3.17692 1.06933,5.83471 4.64415,5.83471 2.4744,0 3.45358,-1.4952 4.1841,-2.65779 l -0.028,-0.0311 0.0901,0.0311 c 0,0.79578 0.0901,1.61954 0.12125,2.41533 l 3.54684,0 c -0.0932,-0.70253 -0.12438,-1.61955 -0.12438,-2.59874 l 0,-13.13668 z m -37.20825,15.73418 3.78618,0 0,-9.53078 c 0,-1.74388 0.88905,-3.33235 2.56767,-3.33235 1.40505,0 2.01743,0.97919 2.01743,2.93445 l 0,9.92868 3.7862,0 0,-9.53078 c 0,-1.74388 0.88904,-3.33235 2.56765,-3.33235 1.40505,0 2.01433,0.97919 2.01433,2.93445 l 0,9.92868 3.79241,0 0,-9.71419 c 0,-3.82039 -1.10041,-6.2637 -4.52291,-6.2637 -2.32208,0 -3.45359,1.40506 -4.21829,2.50549 -0.45695,-0.85485 -1.3118,-2.50549 -3.9696,-2.50549 -2.16976,0 -3.39141,1.49831 -3.97271,2.71686 l -0.0621,0 c 0,-0.82376 -0.0901,-1.64752 -0.12125,-2.47438 l -3.78931,0 c 0.0621,0.58128 0.12438,1.43613 0.12438,2.56765 l 0,13.16776 z m -24.68397,0 3.7893,0 0,-9.53078 c 0,-1.74388 0.88594,-3.33235 2.56455,-3.33235 1.40817,0 2.01744,0.97919 2.01744,2.93445 l 0,9.92868 3.78931,0 0,-9.53078 c 0,-1.74388 0.88593,-3.33235 2.56454,-3.33235 1.40506,0 2.01744,0.97919 2.01744,2.93445 l 0,9.92868 3.7862,0 0,-9.71419 c 0,-3.82039 -1.09731,-6.2637 -4.51981,-6.2637 -2.32208,0 -3.45359,1.40506 -4.21518,2.50549 -0.46006,-0.85485 -1.31491,-2.50549 -3.97271,-2.50549 -2.16976,0 -3.39141,1.49831 -3.97271,2.71686 l -0.059,0 c 0,-0.82376 -0.0932,-1.64752 -0.12125,-2.47438 l -3.78932,0 c 0.0591,0.58128 0.12125,1.43613 0.12125,2.56765 l 0,13.16776 z m -17.65431,-7.88139 c 0,6.59943 3.72714,8.12571 6.93514,8.12571 3.20801,0 6.90406,-1.52628 6.90406,-8.12571 0,-6.41602 -3.69605,-8.09462 -6.90406,-8.09462 -3.208,0 -6.93514,1.6786 -6.93514,8.09462 m 3.91054,0 c 0,-2.62671 0.5813,-5.40885 3.0246,-5.40885 2.44331,0 2.99352,2.78214 2.99352,5.40885 0,2.62671 -0.55021,5.43683 -2.99352,5.43683 -2.4433,0 -3.0246,-2.81012 -3.0246,-5.43683 m -20.2543,7.88139 3.91054,0 0,-10.02193 0.0901,0 6.41914,10.02193 4.7343,0 -7.82109,-11.27466 7.23979,-10.0499 -4.49184,0 -6.0803,9.04272 -0.0901,0 0,-9.04272 -3.91054,0 0,21.32456 z m 343.58255,25.69734 c 0,-2.07962 0.82687,-4.1872 2.81322,-4.1872 1.7097,0 2.62672,1.40506 2.62672,4.1872 l -5.43994,0 z m 8.12882,5.46791 c -0.70252,0.51912 -1.80606,1.22166 -4.12502,1.22166 -2.93446,0 -4.0038,-1.61955 -4.0038,-4.30844 l 9.1049,0 0,-0.73361 c 0,-6.41602 -2.90336,-8.40237 -6.29168,-8.40237 -4.00378,0 -6.47818,3.63698 -6.47818,8.34331 0,4.24626 2.19773,7.88325 7.27086,7.88325 2.25991,0 3.91054,-0.67455 4.70322,-1.01028 l -0.1803,-2.99352 z m -24.83503,-4.06379 c 0,-2.96554 0.7647,-5.37776 2.99352,-5.37776 2.19774,0 2.78214,1.83404 2.78214,5.47102 0,3.14584 -0.73361,5.19437 -2.8412,5.19437 -2.07961,0 -2.93446,-2.23193 -2.93446,-5.28763 m -3.7893,14.4205 3.7893,0 0,-8.85932 0.0621,0 c 0.55021,1.22165 1.80295,2.50547 4.06286,2.50547 3.39142,0 5.43683,-2.99351 5.43683,-8.12881 0,-4.3675 -1.61955,-8.09775 -5.53009,-8.09775 -2.44331,0 -3.57481,1.346 -4.18409,2.692 l -0.0901,0 c 0,-1.06934 -0.0621,-1.98637 -0.12438,-2.44643 l -3.54373,0 c 0.0901,0.5813 0.12125,1.56049 0.12125,2.68889 l 0,19.64595 z m -13.52835,-14.4205 c 0,-2.96554 0.7647,-5.37776 2.99351,-5.37776 2.19774,0 2.78214,1.83404 2.78214,5.47102 0,3.14584 -0.73672,5.19437 -2.8443,5.19437 -2.07652,0 -2.93135,-2.23193 -2.93135,-5.28763 m -3.78932,14.4205 3.78932,0 0,-8.85932 0.0621,0 c 0.55021,1.22165 1.80295,2.50547 4.05975,2.50547 3.39141,0 5.43994,-2.99351 5.43994,-8.12881 0,-4.3675 -1.61954,-8.09775 -5.53009,-8.09775 -2.44641,0 -3.57481,1.346 -4.18409,2.692 l -0.0901,0 c 0,-1.06934 -0.0621,-1.98637 -0.12438,-2.44643 l -3.54373,0 c 0.0901,0.5813 0.12125,1.56049 0.12125,2.68889 l 0,19.64595 z m -8.61126,-25.29696 3.91054,0 0,-3.72713 -3.91054,0 0,3.72713 z m 0.0621,18.69785 3.78931,0 0,-15.73542 -3.78931,0 0,15.73542 z m -14.4761,6.2e-4 10.93582,0 0,-3.11786 -7.02529,0 0,-18.2067 -3.91053,0 0,21.32456 z m -12.76522,0.30558 2.56765,0 5.43994,-21.93695 -2.69199,0 -5.3156,21.93695 z m -17.10472,5.49992 c 0.91701,0.33573 2.90337,0.97609 5.40575,0.97609 5.77876,0 7.27397,-3.51265 7.27397,-8.43035 l 0,-11.61039 c 0,-0.82687 0.0621,-1.65064 0.12125,-2.4775 l -3.4225,0 c -0.028,0.82686 -0.12125,1.61954 -0.12125,2.44642 l -0.12125,0 c -0.79267,-1.37398 -1.86512,-2.68889 -4.15611,-2.68889 -4.12192,0 -5.6824,3.8204 -5.6824,8.1568 0,6.35696 3.30126,7.82109 5.499,7.82109 2.47439,0 3.54684,-1.43615 4.15611,-2.6578 l 0.0591,0 0,1.49831 c 0,2.4744 -0.57819,4.94879 -4.15301,4.94879 -1.98635,0 -3.75822,-0.85486 -4.64415,-1.34289 l -0.21449,3.36032 z m 3.20801,-13.8392 c 0,-3.21112 0.7647,-5.04205 2.75105,-5.07314 1.80295,-0.0311 3.05259,1.74079 3.05259,5.03894 0,3.57793 -0.945,5.28763 -3.32614,5.28763 -1.28694,0 -2.4775,-1.55738 -2.4775,-5.25343 m -14.71457,8.0337 3.78931,0 0,-8.61686 c 0,-2.93446 1.70969,-3.87945 3.26706,-3.87945 0.3979,0 0.73363,0.0621 1.07245,0.15231 l 0,-3.54372 c -0.2176,-0.0311 -0.401,-0.0933 -0.64346,-0.0933 -2.35316,0 -3.54374,1.89621 -4.00069,3.11786 l -0.0621,0 c 0,-0.9481 -0.0901,-1.92419 -0.12125,-2.87229 l -3.42249,0 c 0.0901,0.70253 0.12125,1.61955 0.12125,2.59874 l 0,13.13667 z m -13.08259,-9.22613 c 0,-2.07962 0.82687,-4.1872 2.81322,-4.1872 1.7097,0 2.62672,1.40506 2.62672,4.1872 l -5.43994,0 z m 8.12571,5.46791 c -0.69941,0.51912 -1.79984,1.22166 -4.12191,1.22166 -2.93446,0 -4.0038,-1.61955 -4.0038,-4.30844 l 9.1049,0 0,-0.73361 c 0,-6.41602 -2.90336,-8.40237 -6.29168,-8.40237 -4.00378,0 -6.47818,3.63698 -6.47818,8.34331 0,4.24626 2.19773,7.88325 7.27086,7.88325 2.26301,0 3.91054,-0.67455 4.70632,-1.01028 l -0.18651,-2.99352 z m -24.83192,-4.15518 c 0,-3.05568 0.85796,-5.28762 2.93446,-5.28762 2.10759,0 2.8412,2.04852 2.8412,5.19436 0,3.63699 -0.5813,5.47103 -2.78214,5.47103 -2.22882,0 -2.99352,-2.41223 -2.99352,-5.37777 m -3.7862,-15.0018 0,20.22725 c 0,1.1284 -0.0311,2.10759 -0.12125,2.68889 l 3.54372,0 c 0.0591,-0.46006 0.12125,-1.37709 0.12125,-2.44642 l 0.0901,0 c 0.60927,1.34288 1.74388,2.68888 4.18408,2.68888 3.91054,0 5.5332,-3.72713 5.5332,-8.09462 0,-5.13531 -2.04852,-8.12883 -5.43993,-8.12883 -2.25992,0 -3.51265,1.28383 -4.05975,2.50548 l -0.0653,0 0,-9.44063 -3.7862,0 z m -14.01825,22.39514 c 0.79578,0.30464 2.41222,0.7647 4.36748,0.7647 3.42562,0 5.86582,-1.74389 5.86582,-4.64415 0,-1.83404 -0.97608,-2.71686 -2.93135,-3.97271 l -1.86202,-1.19056 c -1.10042,-0.70254 -1.77186,-1.1626 -1.77186,-2.01745 0,-0.9481 0.64035,-1.52629 2.16975,-1.52629 1.37088,0 2.38425,0.33572 3.32614,0.70254 l 0.21449,-2.93447 c -0.3637,-0.12125 -1.92419,-0.64347 -3.93852,-0.64347 -3.33235,0 -5.43993,2.2941 -5.43993,4.46386 0,2.4744 1.74388,3.48156 3.33235,4.42966 l 1.55737,0.91703 c 1.37398,0.79267 1.68173,1.37397 1.68173,1.98635 0,1.22166 -1.06934,1.55737 -2.44643,1.55737 -1.77186,0 -3.32924,-0.79577 -3.94162,-1.03825 l -0.1834,3.14584 z m -16.15694,0.52006 3.78931,0 0,-9.16396 c 0,-2.01744 0.69941,-3.69916 2.68578,-3.69916 1.56048,0 2.17286,1.01027 2.17286,3.4225 l 0,9.44062 3.78931,0 0,-10.14315 c 0,-3.18003 -1.07245,-5.83783 -4.64416,-5.83783 -2.56765,0 -3.63699,1.7128 -4.1872,2.6578 l 0.028,0 -0.0901,0 c 0,-0.79268 -0.0932,-1.61644 -0.11812,-2.41223 l -3.54684,0 c 0.0932,0.70253 0.12125,1.61955 0.12125,2.59874 l 0,13.13667 z m -12.95794,-9.22613 c 0,-2.07962 0.82688,-4.1872 2.81013,-4.1872 1.7128,0 2.62982,1.40506 2.62982,4.1872 l -5.43995,0 z m 8.12883,5.46791 c -0.70253,0.51912 -1.80295,1.22166 -4.12503,1.22166 -2.93446,0 -4.0038,-1.61955 -4.0038,-4.30844 l 9.10491,0 0,-0.73361 c 0,-6.41602 -2.90026,-8.40237 -6.29478,-8.40237 -4.00069,0 -6.47509,3.63698 -6.47509,8.34331 0,4.24626 2.19774,7.88325 7.27087,7.88325 2.2599,0 3.91054,-0.67455 4.70322,-1.01028 l -0.1803,-2.99352 z m -23.58758,3.75822 4.46075,0 4.82756,-15.73541 -3.66497,0 -3.23909,12.12951 -0.059,0 -3.20801,-12.12951 -3.91365,0 4.79647,15.73541 z m -11.3673,-6.81391 c 0,2.81011 -0.82376,4.49184 -3.08677,4.49184 -1.46413,0 -2.41223,-0.97919 -2.41223,-2.41534 0,-2.29099 1.92419,-2.96244 5.16328,-2.96244 l 0.33572,0 0,0.88594 z m -7.23977,-4.94879 c 0.7305,-0.61238 2.41222,-1.5263 4.30842,-1.5263 2.16665,0 2.93135,1.43615 2.93135,2.99353 l 0,0.57819 -0.7647,0 c -4.79647,0 -8.27804,1.06933 -8.27804,5.34668 0,2.93447 2.25992,4.61618 4.70633,4.61618 2.25991,0 3.45049,-1.10043 4.39859,-2.38425 l 0.0591,0 c 0,0.7616 0.0311,1.5263 0.21449,2.13867 l 3.4225,0 c -0.0901,-0.61237 -0.21449,-1.65063 -0.21449,-2.77902 l 0,-6.87609 c 0,-3.94162 -1.13151,-6.32587 -6.01812,-6.32587 -2.41534,0 -3.91055,0.67455 -4.97989,1.16258 l 0.2145,3.0557 z m -14.60547,-0.27542 0,-6.29478 1.58847,0 c 2.20083,0 3.48466,0.61238 3.48466,3.05569 0,2.16976 -1.40505,3.23909 -3.48466,3.23909 l -1.58847,0 z m -3.91053,12.03937 3.91053,0 0,-9.16707 0.88593,0 c 1.43615,0 2.44642,0.5502 2.96555,2.23192 l 2.10759,6.93515 4.15611,0 -2.78214,-8.12882 c -0.67145,-1.98636 -1.55737,-2.35316 -2.35316,-2.4744 l 0,-0.0901 c 2.38425,-0.3668 4.12502,-2.23192 4.12502,-5.01096 0,-3.91054 -2.56453,-5.62024 -6.35385,-5.62024 l -6.66158,0 0,21.32458 z m -11.32938,-7.12042 7.05638,0 0,-3.11786 -7.05638,0 0,3.11786 z m -16.34251,7.11917 3.7862,0 0,-9.16396 c 0,-2.01744 0.70564,-3.69916 2.68887,-3.69916 1.56049,0 2.16977,1.01027 2.16977,3.4225 l 0,9.44062 3.78931,0 0,-10.14315 c 0,-3.18003 -1.06934,-5.83783 -4.64416,-5.83783 -2.56765,0 -3.63388,1.7128 -4.18409,2.6578 l 0.028,0 -0.0901,0 c 0,-0.79268 -0.0932,-1.61644 -0.12437,-2.41223 l -3.54374,0 c 0.0933,0.70253 0.12438,1.61955 0.12438,2.59874 l 0,13.13667 z m -12.95825,-9.22613 c 0,-2.07962 0.82687,-4.1872 2.81011,-4.1872 1.71281,0 2.62983,1.40506 2.62983,4.1872 l -5.43994,0 z m 8.12571,5.46791 c -0.70252,0.51912 -1.80295,1.22166 -4.12502,1.22166 -2.93135,0 -4.00069,-1.61955 -4.00069,-4.30844 l 9.1049,0 0,-0.73361 c 0,-6.41602 -2.90338,-8.40237 -6.29479,-8.40237 -4.00379,0 -6.47819,3.63698 -6.47819,8.34331 0,4.24626 2.20085,7.88325 7.27398,7.88325 2.25991,0 3.91054,-0.67455 4.70322,-1.01028 l -0.18341,-2.99352 z m -25.32151,-4.24781 c 0,-3.14584 0.73361,-5.19437 2.8412,-5.19437 2.0765,0 2.93135,2.23193 2.93135,5.28763 0,2.96242 -0.76159,5.37776 -2.99353,5.37776 -2.20083,0 -2.77902,-1.83404 -2.77902,-5.47102 m 5.77255,-14.90854 0,9.44062 -0.0591,0 c -0.55021,-1.22166 -1.80295,-2.50548 -4.06286,-2.50548 -3.39141,0 -5.43994,2.99352 -5.43994,8.12572 0,4.3706 1.61955,8.09774 5.53009,8.09774 2.44331,0 3.57481,-1.346 4.1872,-2.68889 l 0.0901,0 c 0,1.06934 0.0621,1.98635 0.12125,2.44641 l 3.54685,0 c -0.0933,-0.58128 -0.12438,-1.56047 -0.12438,-2.69198 l 0,-20.22414 -3.7893,0 z m -25.9022,22.91457 3.78931,0 0,-9.16396 c 0,-2.01744 0.70253,-3.69916 2.68889,-3.69916 1.55737,0 2.16665,1.01027 2.16665,3.4225 l 0,9.44062 3.7893,0 0,-10.14315 c 0,-3.18003 -1.06934,-5.83783 -4.64415,-5.83783 -2.56455,0 -3.63389,1.7128 -4.1841,2.6578 l 0.0311,0 -0.0933,0 c 0,-0.79268 -0.0901,-1.61644 -0.12125,-2.41223 l -3.54372,0 c 0.0901,0.70253 0.12125,1.61955 0.12125,2.59874 l 0,13.13667 z m -8.55065,-18.69847 3.91054,0 0,-3.72713 -3.91054,0 0,3.72713 z m 0.0621,18.69785 3.7893,0 0,-15.73541 -3.7893,0 0,15.73541 z m -8.76913,6.2e-4 3.54373,0 0,-21.32456 -5.65132,0 -4.49184,15.91571 -0.0591,0 -4.40169,-15.91571 -5.83472,0 0,21.32456 3.54373,0 0,-17.78393 0.0621,0 5.10111,17.78393 2.77904,0 5.34667,-17.78393 0.0621,0 0,17.78393 z m -33.23058,-122.24446 -31.8998,-49.49722 31.11335,-35.04254 -30.95481,0 -22.78557,29.54042 0,-56.88312 -25.76978,0 0,111.88246 25.76978,0 0,-25.4558 5.02961,-5.50211 17.59742,30.95791 31.8998,0 z"
       id="path284"
       style="fill:#003366;fill-opacity:1;fill-rule:nonzero;stroke:none" />
    <path
       d="m 433.50341,418.93773 c 0,1.57292 1.2745,2.84742 2.85053,2.84742 1.56981,0 2.8412,-1.2745 2.8412,-2.84742 0,-1.56981 -1.27139,-2.84431 -2.8412,-2.84431 -1.44237,0 -2.85053,1.15016 -2.85053,2.84431"
       id="path288"
       style="fill:#003366;fill-opacity:1;fill-rule:nonzero;stroke:none" />
    <path
       d="m 431.13035,433.81083 c 0,2.88162 2.33451,5.21924 5.21924,5.21924 2.8785,0 5.21612,-2.33762 5.21612,-5.21924 0,-2.88161 -2.33762,-5.21922 -5.21612,-5.21922 -2.88473,0 -5.21924,2.33761 -5.21924,5.21922"
       id="path292"
       style="fill:#003366;fill-opacity:1;fill-rule:nonzero;stroke:none" />
    <path
       d="m 429.23539,448.92175 c 0,3.92918 3.18313,7.11543 7.11855,7.11543 3.92608,0 7.10922,-3.18625 7.10922,-7.11543 0,-3.9323 -3.18314,-7.11855 -7.10922,-7.11855 -3.93542,0 -7.11855,3.18625 -7.11855,7.11855"
       id="path296"
       style="fill:#003366;fill-opacity:1;fill-rule:nonzero;stroke:none" />
    <path
       d="m 426.38827,463.70377 c 0,5.50211 4.46075,9.96286 9.96598,9.96286 5.499,0 9.95664,-4.46075 9.95664,-9.96286 0,-5.50211 -4.45764,-9.96286 -9.95664,-9.96286 -5.50523,0 -9.96598,4.46075 -9.96598,9.96286"
       id="path300"
       style="fill:#003366;fill-opacity:1;fill-rule:nonzero;stroke:none" />
    <path
       d="m 425.4408,493.41392 c 0,6.02435 4.88351,10.91097 10.91407,10.91097 6.02124,0 10.90164,-4.88662 10.90164,-10.91097 0,-6.02434 -4.8804,-10.91096 -10.90164,-10.91096 -6.03056,0 -10.91407,4.88662 -10.91407,10.91096"
       id="path304"
       style="fill:#003366;fill-opacity:1;fill-rule:nonzero;stroke:none" />
    <path
       d="m 433.97715,404.07643 c 0,1.3087 1.06312,2.37183 2.37492,2.37183 1.30559,0 2.3687,-1.06313 2.3687,-2.37183 0,-1.30868 -1.06311,-2.37181 -2.3687,-2.37181 -1.3118,0 -2.37492,1.06313 -2.37492,2.37181"
       id="path308"
       style="fill:#003366;fill-opacity:1;fill-rule:nonzero;stroke:none" />
    <path
       d="m 464.7439,418.93773 c 0,1.05069 -0.84864,1.89932 -1.89621,1.89932 -1.04758,0 -1.89932,-0.84863 -1.89932,-1.89932 0,-1.04757 0.85174,-1.89621 1.89932,-1.89621 1.04757,0 1.89621,0.84864 1.89621,1.89621"
       id="path312"
       style="fill:#003366;fill-opacity:1;fill-rule:nonzero;stroke:none" />
    <path
       d="m 477.99621,433.81083 c 0,1.04759 -0.85174,1.89933 -1.89932,1.89933 -1.04758,0 -1.89932,-0.85174 -1.89932,-1.89933 0,-1.04757 0.85174,-1.8962 1.89932,-1.8962 1.04758,0 1.89932,0.84863 1.89932,1.8962"
       id="path316"
       style="fill:#003366;fill-opacity:1;fill-rule:nonzero;stroke:none" />
    <path
       d="m 491.71791,448.88413 c 0,1.04758 -0.85174,1.89932 -1.89931,1.89932 -1.04758,0 -1.89621,-0.85174 -1.89621,-1.89932 0,-1.04757 0.84863,-1.89621 1.89621,-1.89621 1.04757,0 1.89931,0.84864 1.89931,1.89621"
       id="path320"
       style="fill:#003366;fill-opacity:1;fill-rule:nonzero;stroke:none" />
    <path
       d="m 452.00045,418.93773 c 0,1.3118 -1.06313,2.37493 -2.37181,2.37493 -1.3087,0 -2.37182,-1.06313 -2.37182,-2.37493 0,-1.3087 1.06312,-2.37181 2.37182,-2.37181 1.30868,0 2.37181,1.06311 2.37181,2.37181"
       id="path324"
       style="fill:#003366;fill-opacity:1;fill-rule:nonzero;stroke:none" />
    <path
       d="m 465.69294,433.81177 c 0,1.57293 -1.27452,2.84743 -2.84743,2.84743 -1.56981,0 -2.84431,-1.2745 -2.84431,-2.84743 0,-1.57292 1.2745,-2.84742 2.84431,-2.84742 1.57291,0 2.84743,1.2745 2.84743,2.84742"
       id="path328"
       style="fill:#003366;fill-opacity:1;fill-rule:nonzero;stroke:none" />
    <path
       d="m 453.89821,433.81083 c 0,2.35628 -1.91175,4.27114 -4.27114,4.27114 -2.35937,0 -4.26491,-1.91486 -4.26491,-4.27114 0,-2.35937 1.90554,-4.26801 4.26491,-4.26801 2.35939,0 4.27114,1.90864 4.27114,4.26801"
       id="path332"
       style="fill:#003366;fill-opacity:1;fill-rule:nonzero;stroke:none" />
    <path
       d="m 479.41899,448.88413 c 0,1.83404 -1.48899,3.32303 -3.32303,3.32303 -1.83092,0 -3.31681,-1.48899 -3.31681,-3.32303 0,-1.83403 1.48589,-3.31991 3.31681,-3.31991 1.83404,0 3.32303,1.48588 3.32303,3.31991"
       id="path336"
       style="fill:#003366;fill-opacity:1;fill-rule:nonzero;stroke:none" />
    <path
       d="m 492.27714,463.70377 c 0,1.3087 -1.06312,2.37181 -2.37182,2.37181 -1.3118,0 -2.37181,-1.06311 -2.37181,-2.37181 0,-1.3118 1.06001,-2.37181 2.37181,-2.37181 1.3087,0 2.37182,1.06001 2.37182,2.37181"
       id="path340"
       style="fill:#003366;fill-opacity:1;fill-rule:nonzero;stroke:none" />
    <path
       d="m 492.75087,478.53927 c 0,1.57291 -1.2745,2.84741 -2.84741,2.84741 -1.56981,0 -2.84431,-1.2745 -2.84431,-2.84741 0,-1.57292 1.2745,-2.84742 2.84431,-2.84742 1.57291,0 2.84741,1.2745 2.84741,2.84742"
       id="path344"
       style="fill:#003366;fill-opacity:1;fill-rule:nonzero;stroke:none" />
    <path
       d="m 468.06319,448.88413 c 0,2.88162 -2.33452,5.21924 -5.21613,5.21924 -2.88161,0 -5.21922,-2.33762 -5.21922,-5.21924 0,-2.88161 2.33761,-5.21612 5.21922,-5.21612 2.88161,0 5.21613,2.33451 5.21613,5.21612"
       id="path348"
       style="fill:#003366;fill-opacity:1;fill-rule:nonzero;stroke:none" />
    <path
       d="m 455.79472,448.88476 c 0,3.40695 -2.75727,6.16734 -6.16733,6.16734 -3.40385,0 -6.16423,-2.76039 -6.16423,-6.16734 0,-3.40696 2.76038,-6.16734 6.16423,-6.16734 3.41006,0 6.16733,2.76038 6.16733,6.16734"
       id="path352"
       style="fill:#003366;fill-opacity:1;fill-rule:nonzero;stroke:none" />
    <path
       d="m 480.36802,463.62886 c 0,2.35937 -1.91486,4.27112 -4.27113,4.27112 -2.35627,0 -4.26802,-1.91175 -4.26802,-4.27112 0,-2.35938 1.91175,-4.26803 4.26802,-4.26803 2.35627,0 4.27113,1.90865 4.27113,4.26803"
       id="path356"
       style="fill:#003366;fill-opacity:1;fill-rule:nonzero;stroke:none" />
    <path
       d="m 469.95971,463.62886 c 0,3.92919 -3.18004,7.11544 -7.11234,7.11544 -3.92918,0 -7.11543,-3.18625 -7.11543,-7.11544 0,-3.92609 3.18625,-7.11544 7.11543,-7.11544 3.9323,0 7.11234,3.18935 7.11234,7.11544"
       id="path360"
       style="fill:#003366;fill-opacity:1;fill-rule:nonzero;stroke:none" />
    <path
       d="m 457.6928,463.6301 c 0,4.45142 -3.60901,8.06043 -8.06355,8.06043 -4.45143,0 -8.06354,-3.60901 -8.06354,-8.06043 0,-4.45453 3.61211,-8.06354 8.06354,-8.06354 4.45454,0 8.06355,3.60901 8.06355,8.06354"
       id="path364"
       style="fill:#003366;fill-opacity:1;fill-rule:nonzero;stroke:none" />
    <path
       d="m 482.26299,478.57937 c 0,3.40695 -2.76038,6.16734 -6.16734,6.16734 -3.40385,0 -6.16423,-2.76039 -6.16423,-6.16734 0,-3.40385 2.76038,-6.16734 6.16423,-6.16734 3.40696,0 6.16734,2.76349 6.16734,6.16734"
       id="path368"
       style="fill:#003366;fill-opacity:1;fill-rule:nonzero;stroke:none" />
    <path
       d="m 470.9103,478.57937 c 0,4.45143 -3.60901,8.06354 -8.06355,8.06354 -4.45453,0 -8.06354,-3.61211 -8.06354,-8.06354 0,-4.45142 3.60901,-8.06355 8.06354,-8.06355 4.45454,0 8.06355,3.61213 8.06355,8.06355"
       id="path372"
       style="fill:#003366;fill-opacity:1;fill-rule:nonzero;stroke:none" />
    <path
       d="m 458.64184,493.41268 c 0,4.97676 -4.03489,9.01475 -9.01477,9.01475 -4.97676,0 -9.00853,-4.03799 -9.00853,-9.01475 0,-4.97366 4.03177,-9.01165 9.00853,-9.01165 4.97988,0 9.01477,4.03799 9.01477,9.01165"
       id="path376"
       style="fill:#003366;fill-opacity:1;fill-rule:nonzero;stroke:none" />
    <path
       d="m 451.52671,404.1296 c 0,1.04757 -0.85175,1.8962 -1.89932,1.8962 -1.04758,0 -1.8962,-0.84863 -1.8962,-1.8962 0,-1.04758 0.84862,-1.89622 1.8962,-1.89622 1.04757,0 1.89932,0.84864 1.89932,1.89622"
       id="path380"
       style="fill:#003366;fill-opacity:1;fill-rule:nonzero;stroke:none" />
    <path
       d="m 477.28062,418.93773 c 0,0.65279 -0.53156,1.18124 -1.18435,1.18124 -0.64968,0 -1.18125,-0.52845 -1.18125,-1.18124 0,-0.64968 0.53157,-1.18125 1.18125,-1.18125 0.65279,0 1.18435,0.53157 1.18435,1.18125"
       id="path384"
       style="fill:#003366;fill-opacity:1;fill-rule:nonzero;stroke:none" />
    <path
       d="m 492.6654,493.37009 c 0,-1.57292 -1.2745,-2.84742 -2.84743,-2.84742 -1.56981,0 -2.84431,1.2745 -2.84431,2.84742 0,1.57292 1.2745,2.84743 2.84431,2.84743 1.57293,0 2.84743,-1.27451 2.84743,-2.84743"
       id="path388"
       style="fill:#003366;fill-opacity:1;fill-rule:nonzero;stroke:none" />
    <path
       d="m 482.26299,493.40988 c 0,-3.40695 -2.76038,-6.16733 -6.17045,-6.16733 -3.40074,0 -6.16112,2.76038 -6.16112,6.16733 0,3.40385 2.76038,6.17045 6.16112,6.17045 3.41007,0 6.17045,-2.7666 6.17045,-6.17045"
       id="path392"
       style="fill:#003366;fill-opacity:1;fill-rule:nonzero;stroke:none" />
    <path
       d="m 470.86522,493.40988 c 0,-4.45142 -3.60901,-8.06355 -8.06355,-8.06355 -4.45142,0 -8.06353,3.61213 -8.06353,8.06355 0,4.45454 3.61211,8.06665 8.06353,8.06665 4.45454,0 8.06355,-3.61211 8.06355,-8.06665"
       id="path396"
       style="fill:#003366;fill-opacity:1;fill-rule:nonzero;stroke:none" />
    <path
       d="m 425.4408,478.57937 c 0,6.02434 4.88351,10.91096 10.91407,10.91096 6.02124,0 10.90164,-4.88662 10.90164,-10.91096 0,-6.02435 -4.8804,-10.91097 -10.90164,-10.91097 -6.03056,0 -10.91407,4.88662 -10.91407,10.91097"
       id="path400"
       style="fill:#003366;fill-opacity:1;fill-rule:nonzero;stroke:none" />
    <path
       d="m 458.64184,478.57937 c 0,4.97676 -4.03489,9.01475 -9.01477,9.01475 -4.97676,0 -9.00853,-4.03799 -9.00853,-9.01475 0,-4.97677 4.03177,-9.01165 9.00853,-9.01165 4.97988,0 9.01477,4.03488 9.01477,9.01165"
       id="path404"
       style="fill:#003366;fill-opacity:1;fill-rule:nonzero;stroke:none" />
    <path
       d="m 437.52244,390.28728 c 0,0.65279 -0.53157,1.18124 -1.18435,1.18124 -0.64658,0 -1.17814,-0.52845 -1.17814,-1.18124 0,-0.6528 0.53156,-1.18125 1.17814,-1.18125 0.65278,0 1.18435,0.52845 1.18435,1.18125"
       id="path408"
       style="fill:#003366;fill-opacity:1;fill-rule:nonzero;stroke:none" />
    <path
       d="m 439.19576,418.93773 c 0,1.57292 -1.27761,2.84742 -2.85364,2.84742 -1.5667,0 -2.8412,-1.2745 -2.8412,-2.84742 0,-1.56981 1.2745,-2.84431 2.8412,-2.84431 1.44237,0 2.85364,1.15016 2.85364,2.84431"
       id="path412"
       style="fill:#003366;fill-opacity:1;fill-rule:nonzero;stroke:none" />
    <path
       d="m 441.56602,433.81083 c 0,2.88162 -2.33451,5.21924 -5.21612,5.21924 -2.88161,0 -5.21924,-2.33762 -5.21924,-5.21924 0,-2.88161 2.33763,-5.21922 5.21924,-5.21922 2.88161,0 5.21612,2.33761 5.21612,5.21922"
       id="path416"
       style="fill:#003366;fill-opacity:1;fill-rule:nonzero;stroke:none" />
    <path
       d="m 443.46254,448.92081 c 0,3.9292 -3.18314,7.11545 -7.11855,7.11545 -3.92608,0 -7.10923,-3.18625 -7.10923,-7.11545 0,-3.92919 3.18315,-7.11544 7.10923,-7.11544 3.93541,0 7.11855,3.18625 7.11855,7.11544"
       id="path420"
       style="fill:#003366;fill-opacity:1;fill-rule:nonzero;stroke:none" />
    <path
       d="m 446.30934,463.70315 c 0,5.50211 -4.46075,9.96286 -9.96597,9.96286 -5.49901,0 -9.95665,-4.46075 -9.95665,-9.96286 0,-5.5021 4.45764,-9.95975 9.95665,-9.95975 5.50522,0 9.96597,4.45765 9.96597,9.95975"
       id="path424"
       style="fill:#003366;fill-opacity:1;fill-rule:nonzero;stroke:none" />
    <path
       d="m 447.25682,493.41392 c 0,6.02435 -4.88351,10.91097 -10.91407,10.91097 -6.02124,0 -10.90164,-4.88662 -10.90164,-10.91097 0,-6.02434 4.8804,-10.91096 10.90164,-10.91096 6.03056,0 10.91407,4.88662 10.91407,10.91096"
       id="path428"
       style="fill:#003366;fill-opacity:1;fill-rule:nonzero;stroke:none" />
    <path
       d="m 438.72046,404.07643 c 0,1.3087 -1.06311,2.37183 -2.37491,2.37183 -1.30559,0 -2.36871,-1.06313 -2.36871,-2.37183 0,-1.30868 1.06312,-2.37181 2.36871,-2.37181 1.3118,0 2.37491,1.06313 2.37491,2.37181"
       id="path432"
       style="fill:#003366;fill-opacity:1;fill-rule:nonzero;stroke:none" />
    <path
       d="m 407.95372,418.93773 c 0,1.05069 0.84863,1.89932 1.8962,1.89932 1.04759,0 1.89622,-0.84863 1.89622,-1.89932 0,-1.04757 -0.84863,-1.89621 -1.89622,-1.89621 -1.04757,0 -1.8962,0.84864 -1.8962,1.89621"
       id="path436"
       style="fill:#003366;fill-opacity:1;fill-rule:nonzero;stroke:none" />
    <path
       d="m 394.70141,433.81083 c 0,1.04759 0.85174,1.89933 1.89931,1.89933 1.04758,0 1.89932,-0.85174 1.89932,-1.89933 0,-1.04757 -0.85174,-1.8962 -1.89932,-1.8962 -1.04757,0 -1.89931,0.84863 -1.89931,1.8962"
       id="path440"
       style="fill:#003366;fill-opacity:1;fill-rule:nonzero;stroke:none" />
    <path
       d="m 380.98001,448.88413 c 0,1.04758 0.85174,1.89932 1.89931,1.89932 1.04759,0 1.89622,-0.85174 1.89622,-1.89932 0,-1.04757 -0.84863,-1.89621 -1.89622,-1.89621 -1.04757,0 -1.89931,0.84864 -1.89931,1.89621"
       id="path444"
       style="fill:#003366;fill-opacity:1;fill-rule:nonzero;stroke:none" />
    <path
       d="m 420.69747,418.93773 c 0,1.3118 1.06313,2.37493 2.37183,2.37493 1.30869,0 2.37181,-1.06313 2.37181,-2.37493 0,-1.3087 -1.06312,-2.37181 -2.37181,-2.37181 -1.3087,0 -2.37183,1.06311 -2.37183,2.37181"
       id="path448"
       style="fill:#003366;fill-opacity:1;fill-rule:nonzero;stroke:none" />
    <path
       d="m 407.00624,433.81177 c 0,1.57293 1.2745,2.84743 2.84742,2.84743 1.56981,0 2.8412,-1.2745 2.8412,-2.84743 0,-1.57292 -1.27139,-2.84742 -2.8412,-2.84742 -1.57292,0 -2.84742,1.2745 -2.84742,2.84742"
       id="path452"
       style="fill:#003366;fill-opacity:1;fill-rule:nonzero;stroke:none" />
    <path
       d="m 418.79941,433.81083 c 0,2.35628 1.91175,4.27114 4.27113,4.27114 2.35937,0 4.26491,-1.91486 4.26491,-4.27114 0,-2.35937 -1.90554,-4.26801 -4.26491,-4.26801 -2.35938,0 -4.27113,1.90864 -4.27113,4.26801"
       id="path456"
       style="fill:#003366;fill-opacity:1;fill-rule:nonzero;stroke:none" />
    <path
       d="m 393.27894,448.88413 c 0,1.83404 1.48898,3.31992 3.31992,3.31992 1.83404,0 3.31991,-1.48588 3.31991,-3.31992 0,-1.83403 -1.48587,-3.31991 -3.31991,-3.31991 -1.83094,0 -3.31992,1.48588 -3.31992,3.31991"
       id="path460"
       style="fill:#003366;fill-opacity:1;fill-rule:nonzero;stroke:none" />
    <path
       d="m 380.41924,463.70315 c 0,1.31181 1.06622,2.37181 2.37492,2.37181 1.30869,0 2.3687,-1.06 2.3687,-2.37181 0,-1.30869 -1.06001,-2.37182 -2.3687,-2.37182 -1.3087,0 -2.37492,1.06313 -2.37492,2.37182"
       id="path464"
       style="fill:#003366;fill-opacity:1;fill-rule:nonzero;stroke:none" />
    <path
       d="m 379.94705,478.53833 c 0,1.57293 1.2745,2.84743 2.84741,2.84743 1.57293,0 2.84431,-1.2745 2.84431,-2.84743 0,-1.57292 -1.27138,-2.84742 -2.84431,-2.84742 -1.57291,0 -2.84741,1.2745 -2.84741,2.84742"
       id="path468"
       style="fill:#003366;fill-opacity:1;fill-rule:nonzero;stroke:none" />
    <path
       d="m 404.63319,448.88413 c 0,2.88162 2.33451,5.21924 5.21922,5.21924 2.87851,0 5.21613,-2.33762 5.21613,-5.21924 0,-2.88161 -2.33762,-5.21612 -5.21613,-5.21612 -2.88471,0 -5.21922,2.33451 -5.21922,5.21612"
       id="path472"
       style="fill:#003366;fill-opacity:1;fill-rule:nonzero;stroke:none" />
    <path
       d="m 416.9032,448.88476 c 0,3.40695 2.75416,6.16734 6.16734,6.16734 3.40073,0 6.16422,-2.76039 6.16422,-6.16734 0,-3.40696 -2.76349,-6.16734 -6.16422,-6.16734 -3.41318,0 -6.16734,2.76038 -6.16734,6.16734"
       id="path476"
       style="fill:#003366;fill-opacity:1;fill-rule:nonzero;stroke:none" />
    <path
       d="m 392.3299,463.62886 c 0,2.35627 1.91175,4.27112 4.27114,4.27112 2.35626,0 4.26801,-1.91485 4.26801,-4.27112 0,-2.35938 -1.91175,-4.27114 -4.26801,-4.27114 -2.35939,0 -4.27114,1.91176 -4.27114,4.27114"
       id="path480"
       style="fill:#003366;fill-opacity:1;fill-rule:nonzero;stroke:none" />
    <path
       d="m 402.73822,463.62886 c 0,3.92919 3.18003,7.11544 7.11233,7.11544 3.92919,0 7.11544,-3.18625 7.11544,-7.11544 0,-3.92609 -3.18625,-7.11544 -7.11544,-7.11544 -3.9323,0 -7.11233,3.18935 -7.11233,7.11544"
       id="path484"
       style="fill:#003366;fill-opacity:1;fill-rule:nonzero;stroke:none" />
    <path
       d="m 415.00357,463.62948 c 0,4.45143 3.61212,8.06354 8.06665,8.06354 4.44832,0 8.06044,-3.61211 8.06044,-8.06354 0,-4.45453 -3.61212,-8.06355 -8.06044,-8.06355 -4.45453,0 -8.06665,3.60902 -8.06665,8.06355"
       id="path488"
       style="fill:#003366;fill-opacity:1;fill-rule:nonzero;stroke:none" />
    <path
       d="m 390.43339,478.57937 c 0,3.40695 2.76348,6.16734 6.16733,6.16734 3.40695,0 6.16423,-2.76039 6.16423,-6.16734 0,-3.40385 -2.75728,-6.16734 -6.16423,-6.16734 -3.40385,0 -6.16733,2.76349 -6.16733,6.16734"
       id="path492"
       style="fill:#003366;fill-opacity:1;fill-rule:nonzero;stroke:none" />
    <path
       d="m 401.78639,478.57937 c 0,4.45143 3.61211,8.06354 8.06665,8.06354 4.45142,0 8.06043,-3.61211 8.06043,-8.06354 0,-4.45142 -3.60901,-8.06355 -8.06043,-8.06355 -4.45454,0 -8.06665,3.61213 -8.06665,8.06355"
       id="path496"
       style="fill:#003366;fill-opacity:1;fill-rule:nonzero;stroke:none" />
    <path
       d="m 414.05609,493.41268 c 0,4.97676 4.03177,9.01475 9.01476,9.01475 4.97366,0 9.00854,-4.03799 9.00854,-9.01475 0,-4.97366 -4.03488,-9.01165 -9.00854,-9.01165 -4.98299,0 -9.01476,4.03799 -9.01476,9.01165"
       id="path500"
       style="fill:#003366;fill-opacity:1;fill-rule:nonzero;stroke:none" />
    <path
       d="m 421.17122,404.1296 c 0,1.04757 0.85174,1.8962 1.89932,1.8962 1.04757,0 1.89621,-0.84863 1.89621,-1.8962 0,-1.04758 -0.84864,-1.89622 -1.89621,-1.89622 -1.04758,0 -1.89932,0.84864 -1.89932,1.89622"
       id="path504"
       style="fill:#003366;fill-opacity:1;fill-rule:nonzero;stroke:none" />
    <path
       d="m 395.41886,418.93773 c 0,0.65279 0.53155,1.18124 1.18124,1.18124 0.6528,0 1.18435,-0.52845 1.18435,-1.18124 0,-0.64968 -0.53155,-1.18125 -1.18435,-1.18125 -0.64969,0 -1.18124,0.53157 -1.18124,1.18125"
       id="path508"
       style="fill:#003366;fill-opacity:1;fill-rule:nonzero;stroke:none" />
    <path
       d="m 380.03222,493.37009 c 0,-1.57292 1.2745,-2.84742 2.84742,-2.84742 1.56981,0 2.84431,1.2745 2.84431,2.84742 0,1.57292 -1.2745,2.84743 -2.84431,2.84743 -1.57292,0 -2.84742,-1.27451 -2.84742,-2.84743"
       id="path512"
       style="fill:#003366;fill-opacity:1;fill-rule:nonzero;stroke:none" />
    <path
       d="m 390.43339,493.40988 c 0,-3.40695 2.76348,-6.16733 6.17045,-6.16733 3.40383,0 6.16111,2.76038 6.16111,6.16733 0,3.40385 -2.75728,6.17045 -6.16111,6.17045 -3.40697,0 -6.17045,-2.7666 -6.17045,-6.17045"
       id="path516"
       style="fill:#003366;fill-opacity:1;fill-rule:nonzero;stroke:none" />
    <path
       d="m 401.8327,493.40988 c 0,-4.45142 3.60901,-8.06355 8.06355,-8.06355 4.45142,0 8.06044,3.61213 8.06044,8.06355 0,4.45454 -3.60902,8.06665 -8.06044,8.06665 -4.45454,0 -8.06355,-3.61211 -8.06355,-8.06665"
       id="path520"
       style="fill:#003366;fill-opacity:1;fill-rule:nonzero;stroke:none" />
    <path
       d="m 447.25682,478.57937 c 0,6.02434 -4.88351,10.91096 -10.91407,10.91096 -6.02124,0 -10.90164,-4.88662 -10.90164,-10.91096 0,-6.02435 4.8804,-10.91097 10.90164,-10.91097 6.03056,0 10.91407,4.88662 10.91407,10.91097"
       id="path524"
       style="fill:#003366;fill-opacity:1;fill-rule:nonzero;stroke:none" />
    <path
       d="m 414.05609,478.57937 c 0,4.97676 4.03177,9.01164 9.01476,9.01164 4.97366,0 9.00854,-4.03488 9.00854,-9.01164 0,-4.97677 -4.03488,-9.01165 -9.00854,-9.01165 -4.98299,0 -9.01476,4.03488 -9.01476,9.01165"
       id="path528"
       style="fill:#003366;fill-opacity:1;fill-rule:nonzero;stroke:none" />
    <path
       d="m 435.17549,390.28728 c 0,0.65279 0.53156,1.18124 1.18436,1.18124 0.64657,0 1.17812,-0.52845 1.17812,-1.18124 0,-0.6528 -0.53155,-1.18125 -1.17812,-1.18125 -0.6528,0 -1.18436,0.52845 -1.18436,1.18125"
       id="path532"
       style="fill:#003366;fill-opacity:1;fill-rule:nonzero;stroke:none" />
    <path
       d="m 439.19576,567.89136 c 0,-1.57292 -1.27761,-2.85053 -2.85364,-2.85053 -1.5667,0 -2.8412,1.27761 -2.8412,2.85053 0,1.56981 1.2745,2.84431 2.8412,2.84431 1.44237,0 2.85364,-1.15326 2.85364,-2.84431"
       id="path536"
       style="fill:#003366;fill-opacity:1;fill-rule:nonzero;stroke:none" />
    <path
       d="m 441.56602,553.01794 c 0,-2.88161 -2.33451,-5.21612 -5.21612,-5.21612 -2.88161,0 -5.21924,2.33451 -5.21924,5.21612 0,2.88162 2.33763,5.21924 5.21924,5.21924 2.88161,0 5.21612,-2.33762 5.21612,-5.21924"
       id="path540"
       style="fill:#003366;fill-opacity:1;fill-rule:nonzero;stroke:none" />
    <path
       d="m 443.46254,537.90828 c 0,-3.9323 -3.18314,-7.11855 -7.11855,-7.11855 -3.92608,0 -7.10923,3.18625 -7.10923,7.11855 0,3.92919 3.18315,7.11544 7.10923,7.11544 3.93541,0 7.11855,-3.18625 7.11855,-7.11544"
       id="path544"
       style="fill:#003366;fill-opacity:1;fill-rule:nonzero;stroke:none" />
    <path
       d="m 446.30934,523.12532 c 0,-5.50211 -4.46075,-9.96286 -9.96597,-9.96286 -5.49901,0 -9.95665,4.46075 -9.95665,9.96286 0,5.50211 4.45764,9.95975 9.95665,9.95975 5.50522,0 9.96597,-4.45764 9.96597,-9.95975"
       id="path548"
       style="fill:#003366;fill-opacity:1;fill-rule:nonzero;stroke:none" />
    <path
       d="m 447.25682,493.41392 c 0,-6.02434 -4.88351,-10.91096 -10.91407,-10.91096 -6.02124,0 -10.90164,4.88662 -10.90164,10.91096 0,6.02746 4.8804,10.91097 10.90164,10.91097 6.03056,0 10.91407,-4.88351 10.91407,-10.91097"
       id="path552"
       style="fill:#003366;fill-opacity:1;fill-rule:nonzero;stroke:none" />
    <path
       d="m 438.72046,582.75327 c 0,-1.3118 -1.06311,-2.37491 -2.37491,-2.37491 -1.30559,0 -2.36871,1.06311 -2.36871,2.37491 0,1.30559 1.06312,2.36871 2.36871,2.36871 1.3118,0 2.37491,-1.06312 2.37491,-2.36871"
       id="path556"
       style="fill:#003366;fill-opacity:1;fill-rule:nonzero;stroke:none" />
    <path
       d="m 407.95372,567.89136 c 0,-1.05069 0.84863,-1.89932 1.8962,-1.89932 1.04759,0 1.89622,0.84863 1.89622,1.89932 0,1.04757 -0.84863,1.89621 -1.89622,1.89621 -1.04757,0 -1.8962,-0.84864 -1.8962,-1.89621"
       id="path560"
       style="fill:#003366;fill-opacity:1;fill-rule:nonzero;stroke:none" />
    <path
       d="m 394.70141,553.01794 c 0,-1.04757 0.85174,-1.89931 1.89931,-1.89931 1.04758,0 1.89932,0.85174 1.89932,1.89931 0,1.04758 -0.85174,1.89622 -1.89932,1.89622 -1.04757,0 -1.89931,-0.84864 -1.89931,-1.89622"
       id="path564"
       style="fill:#003366;fill-opacity:1;fill-rule:nonzero;stroke:none" />
    <path
       d="m 380.98001,537.94433 c 0,-1.04757 0.85174,-1.89931 1.89931,-1.89931 1.04759,0 1.89622,0.85174 1.89622,1.89931 0,1.04759 -0.84863,1.89621 -1.89622,1.89621 -1.04757,0 -1.89931,-0.84862 -1.89931,-1.89621"
       id="path568"
       style="fill:#003366;fill-opacity:1;fill-rule:nonzero;stroke:none" />
    <path
       d="m 420.69747,567.89136 c 0,-1.3118 1.06313,-2.37493 2.37183,-2.37493 1.30869,0 2.37181,1.06313 2.37181,2.37493 0,1.30558 -1.06312,2.37181 -2.37181,2.37181 -1.3087,0 -2.37183,-1.06623 -2.37183,-2.37181"
       id="path572"
       style="fill:#003366;fill-opacity:1;fill-rule:nonzero;stroke:none" />
    <path
       d="m 407.00624,553.01483 c 0,-1.56981 1.2745,-2.84741 2.84742,-2.84741 1.56981,0 2.8412,1.2776 2.8412,2.84741 0,1.57293 -1.27139,2.84743 -2.8412,2.84743 -1.57292,0 -2.84742,-1.2745 -2.84742,-2.84743"
       id="path576"
       style="fill:#003366;fill-opacity:1;fill-rule:nonzero;stroke:none" />
    <path
       d="m 418.79941,553.01794 c 0,-2.35627 1.91175,-4.27112 4.27113,-4.27112 2.35937,0 4.26491,1.91485 4.26491,4.27112 0,2.35628 -1.90554,4.26803 -4.26491,4.26803 -2.35938,0 -4.27113,-1.91175 -4.27113,-4.26803"
       id="path580"
       style="fill:#003366;fill-opacity:1;fill-rule:nonzero;stroke:none" />
    <path
       d="m 393.27894,537.94433 c 0,-1.83404 1.48898,-3.32302 3.31992,-3.32302 1.83404,0 3.31991,1.48898 3.31991,3.32302 0,1.83404 -1.48587,3.31993 -3.31991,3.31993 -1.83094,0 -3.31992,-1.48589 -3.31992,-3.31993"
       id="path584"
       style="fill:#003366;fill-opacity:1;fill-rule:nonzero;stroke:none" />
    <path
       d="m 380.41924,523.12532 c 0,-1.30869 1.06622,-2.37493 2.37492,-2.37493 1.30869,0 2.3687,1.06624 2.3687,2.37493 0,1.3087 -1.06001,2.37181 -2.3687,2.37181 -1.3087,0 -2.37492,-1.06311 -2.37492,-2.37181"
       id="path588"
       style="fill:#003366;fill-opacity:1;fill-rule:nonzero;stroke:none" />
    <path
       d="m 379.94705,508.28921 c 0,-1.57293 1.2745,-2.84743 2.84741,-2.84743 1.57293,0 2.84431,1.2745 2.84431,2.84743 0,1.57291 -1.27138,2.84741 -2.84431,2.84741 -1.57291,0 -2.84741,-1.2745 -2.84741,-2.84741"
       id="path592"
       style="fill:#003366;fill-opacity:1;fill-rule:nonzero;stroke:none" />
    <path
       d="m 404.63319,537.94433 c 0,-2.88161 2.33451,-5.21922 5.21922,-5.21922 2.87851,0 5.21613,2.33761 5.21613,5.21922 0,2.88163 -2.33762,5.21924 -5.21613,5.21924 -2.88471,0 -5.21922,-2.33761 -5.21922,-5.21924"
       id="path596"
       style="fill:#003366;fill-opacity:1;fill-rule:nonzero;stroke:none" />
    <path
       d="m 416.9032,537.94433 c 0,-3.40695 2.75416,-6.16734 6.16734,-6.16734 3.40073,0 6.16422,2.76039 6.16422,6.16734 0,3.40385 -2.76349,6.16734 -6.16422,6.16734 -3.41318,0 -6.16734,-2.76349 -6.16734,-6.16734"
       id="path600"
       style="fill:#003366;fill-opacity:1;fill-rule:nonzero;stroke:none" />
    <path
       d="m 392.3299,523.19868 c 0,-2.35627 1.91175,-4.27112 4.27114,-4.27112 2.35626,0 4.26801,1.91485 4.26801,4.27112 0,2.35938 -1.91175,4.27113 -4.26801,4.27113 -2.35939,0 -4.27114,-1.91175 -4.27114,-4.27113"
       id="path604"
       style="fill:#003366;fill-opacity:1;fill-rule:nonzero;stroke:none" />
    <path
       d="m 402.73822,523.19868 c 0,-3.92919 3.18003,-7.11544 7.11233,-7.11544 3.92919,0 7.11544,3.18625 7.11544,7.11544 0,3.92919 -3.18625,7.11544 -7.11544,7.11544 -3.9323,0 -7.11233,-3.18625 -7.11233,-7.11544"
       id="path608"
       style="fill:#003366;fill-opacity:1;fill-rule:nonzero;stroke:none" />
    <path
       d="m 415.00357,523.19868 c 0,-4.45142 3.61212,-8.06044 8.06665,-8.06044 4.44832,0 8.06044,3.60902 8.06044,8.06044 0,4.45454 -3.61212,8.06355 -8.06044,8.06355 -4.45453,0 -8.06665,-3.60901 -8.06665,-8.06355"
       id="path612"
       style="fill:#003366;fill-opacity:1;fill-rule:nonzero;stroke:none" />
    <path
       d="m 390.43339,508.24973 c 0,-3.40696 2.76348,-6.16734 6.16733,-6.16734 3.40695,0 6.16423,2.76038 6.16423,6.16734 0,3.40384 -2.75728,6.16734 -6.16423,6.16734 -3.40385,0 -6.16733,-2.7635 -6.16733,-6.16734"
       id="path616"
       style="fill:#003366;fill-opacity:1;fill-rule:nonzero;stroke:none" />
    <path
       d="m 401.78639,508.24973 c 0,-4.45454 3.61211,-8.06355 8.06665,-8.06355 4.45142,0 8.06043,3.60901 8.06043,8.06355 0,4.45143 -3.60901,8.06044 -8.06043,8.06044 -4.45454,0 -8.06665,-3.60901 -8.06665,-8.06044"
       id="path620"
       style="fill:#003366;fill-opacity:1;fill-rule:nonzero;stroke:none" />
    <path
       d="m 414.05609,493.41392 c 0,-4.97365 4.03177,-9.01475 9.01476,-9.01475 4.97366,0 9.00854,4.0411 9.00854,9.01475 0,4.97677 -4.03488,9.01476 -9.00854,9.01476 -4.98299,0 -9.01476,-4.03799 -9.01476,-9.01476"
       id="path624"
       style="fill:#003366;fill-opacity:1;fill-rule:nonzero;stroke:none" />
    <path
       d="m 421.17122,582.69949 c 0,-1.04757 0.85174,-1.8962 1.89932,-1.8962 1.04757,0 1.89621,0.84863 1.89621,1.8962 0,1.04448 -0.84864,1.89622 -1.89621,1.89622 -1.04758,0 -1.89932,-0.85174 -1.89932,-1.89622"
       id="path628"
       style="fill:#003366;fill-opacity:1;fill-rule:nonzero;stroke:none" />
    <path
       d="m 395.41886,567.89136 c 0,-0.65279 0.53155,-1.18435 1.18124,-1.18435 0.6528,0 1.18435,0.53156 1.18435,1.18435 0,0.64968 -0.53155,1.17813 -1.18435,1.17813 -0.64969,0 -1.18124,-0.52845 -1.18124,-1.17813"
       id="path632"
       style="fill:#003366;fill-opacity:1;fill-rule:nonzero;stroke:none" />
    <path
       d="m 380.03222,493.45807 c 0,1.56981 1.2745,2.84741 2.84742,2.84741 1.56981,0 2.84431,-1.2776 2.84431,-2.84741 0,-1.57293 -1.2745,-2.84743 -2.84431,-2.84743 -1.57292,0 -2.84742,1.2745 -2.84742,2.84743"
       id="path636"
       style="fill:#003366;fill-opacity:1;fill-rule:nonzero;stroke:none" />
    <path
       d="m 390.43339,493.41703 c 0,3.40696 2.76348,6.16734 6.17045,6.16734 3.40383,0 6.16111,-2.76038 6.16111,-6.16734 0,-3.40385 -2.75728,-6.16733 -6.16111,-6.16733 -3.40697,0 -6.17045,2.76348 -6.17045,6.16733"
       id="path640"
       style="fill:#003366;fill-opacity:1;fill-rule:nonzero;stroke:none" />
    <path
       d="m 401.8327,493.41827 c 0,4.45142 3.60901,8.06355 8.06355,8.06355 4.45142,0 8.06044,-3.61213 8.06044,-8.06355 0,-4.45452 -3.60902,-8.06665 -8.06044,-8.06665 -4.45454,0 -8.06355,3.61213 -8.06355,8.06665"
       id="path644"
       style="fill:#003366;fill-opacity:1;fill-rule:nonzero;stroke:none" />
    <path
       d="m 447.25682,508.24973 c 0,-6.02746 -4.88351,-10.91097 -10.91407,-10.91097 -6.02124,0 -10.90164,4.88351 -10.90164,10.91097 0,6.02434 4.8804,10.91096 10.90164,10.91096 6.03056,0 10.91407,-4.88662 10.91407,-10.91096"
       id="path648"
       style="fill:#003366;fill-opacity:1;fill-rule:nonzero;stroke:none" />
    <path
       d="m 414.05609,508.24973 c 0,-4.97677 4.03177,-9.01476 9.01476,-9.01476 4.97366,0 9.00854,4.03799 9.00854,9.01476 0,4.97365 -4.03488,9.01165 -9.00854,9.01165 -4.98299,0 -9.01476,-4.038 -9.01476,-9.01165"
       id="path652"
       style="fill:#003366;fill-opacity:1;fill-rule:nonzero;stroke:none" />
    <path
       d="m 435.17549,596.54151 c 0,-0.6528 0.53156,-1.18125 1.18436,-1.18125 0.64657,0 1.17812,0.52845 1.17812,1.18125 0,0.64967 -0.53155,1.18123 -1.17812,1.18123 -0.6528,0 -1.18436,-0.53156 -1.18436,-1.18123"
       id="path656"
       style="fill:#003366;fill-opacity:1;fill-rule:nonzero;stroke:none" />
    <path
       d="m 433.50341,567.89136 c 0,-1.57292 1.2745,-2.85053 2.85053,-2.85053 1.56981,0 2.8412,1.27761 2.8412,2.85053 0,1.56981 -1.27139,2.84431 -2.8412,2.84431 -1.44237,0 -2.85053,-1.15326 -2.85053,-2.84431"
       id="path660"
       style="fill:#003366;fill-opacity:1;fill-rule:nonzero;stroke:none" />
    <path
       d="m 431.13035,553.01794 c 0,-2.88161 2.33451,-5.21612 5.21924,-5.21612 2.8785,0 5.21612,2.33451 5.21612,5.21612 0,2.88162 -2.33762,5.21924 -5.21612,5.21924 -2.88473,0 -5.21924,-2.33762 -5.21924,-5.21924"
       id="path664"
       style="fill:#003366;fill-opacity:1;fill-rule:nonzero;stroke:none" />
    <path
       d="m 429.23539,537.90828 c 0,-3.9323 3.18313,-7.11855 7.11855,-7.11855 3.92608,0 7.10922,3.18625 7.10922,7.11855 0,3.92919 -3.18314,7.11544 -7.10922,7.11544 -3.93542,0 -7.11855,-3.18625 -7.11855,-7.11544"
       id="path668"
       style="fill:#003366;fill-opacity:1;fill-rule:nonzero;stroke:none" />
    <path
       d="m 426.38827,523.12532 c 0,-5.50211 4.46075,-9.96286 9.96598,-9.96286 5.499,0 9.95664,4.46075 9.95664,9.96286 0,5.50211 -4.45764,9.95975 -9.95664,9.95975 -5.50523,0 -9.96598,-4.45764 -9.96598,-9.95975"
       id="path672"
       style="fill:#003366;fill-opacity:1;fill-rule:nonzero;stroke:none" />
    <path
       d="m 425.4408,493.41392 c 0,-6.02434 4.88351,-10.91096 10.91407,-10.91096 6.02124,0 10.90164,4.88662 10.90164,10.91096 0,6.02746 -4.8804,10.91097 -10.90164,10.91097 -6.03056,0 -10.91407,-4.88351 -10.91407,-10.91097"
       id="path676"
       style="fill:#003366;fill-opacity:1;fill-rule:nonzero;stroke:none" />
    <path
       d="m 433.97715,582.75327 c 0,-1.3118 1.06312,-2.37491 2.37492,-2.37491 1.30559,0 2.3687,1.06311 2.3687,2.37491 0,1.30559 -1.06311,2.36871 -2.3687,2.36871 -1.3118,0 -2.37492,-1.06312 -2.37492,-2.36871"
       id="path680"
       style="fill:#003366;fill-opacity:1;fill-rule:nonzero;stroke:none" />
    <path
       d="m 464.7439,567.89136 c 0,-1.05069 -0.84864,-1.89932 -1.89621,-1.89932 -1.04758,0 -1.89932,0.84863 -1.89932,1.89932 0,1.04757 0.85174,1.89621 1.89932,1.89621 1.04757,0 1.89621,-0.84864 1.89621,-1.89621"
       id="path684"
       style="fill:#003366;fill-opacity:1;fill-rule:nonzero;stroke:none" />
    <path
       d="m 477.99621,553.01794 c 0,-1.04757 -0.85174,-1.89931 -1.89932,-1.89931 -1.04758,0 -1.89932,0.85174 -1.89932,1.89931 0,1.04758 0.85174,1.89622 1.89932,1.89622 1.04758,0 1.89932,-0.84864 1.89932,-1.89622"
       id="path688"
       style="fill:#003366;fill-opacity:1;fill-rule:nonzero;stroke:none" />
    <path
       d="m 491.71791,537.94433 c 0,-1.04757 -0.85174,-1.89931 -1.89931,-1.89931 -1.04758,0 -1.89621,0.85174 -1.89621,1.89931 0,1.04759 0.84863,1.89621 1.89621,1.89621 1.04757,0 1.89931,-0.84862 1.89931,-1.89621"
       id="path692"
       style="fill:#003366;fill-opacity:1;fill-rule:nonzero;stroke:none" />
    <path
       d="m 452.00045,567.89136 c 0,-1.3118 -1.06313,-2.37493 -2.37181,-2.37493 -1.3087,0 -2.37182,1.06313 -2.37182,2.37493 0,1.30558 1.06312,2.37181 2.37182,2.37181 1.30868,0 2.37181,-1.06623 2.37181,-2.37181"
       id="path696"
       style="fill:#003366;fill-opacity:1;fill-rule:nonzero;stroke:none" />
    <path
       d="m 465.69294,553.01483 c 0,-1.56981 -1.27452,-2.84741 -2.84743,-2.84741 -1.56981,0 -2.84431,1.2776 -2.84431,2.84741 0,1.57293 1.2745,2.84743 2.84431,2.84743 1.57291,0 2.84743,-1.2745 2.84743,-2.84743"
       id="path700"
       style="fill:#003366;fill-opacity:1;fill-rule:nonzero;stroke:none" />
    <path
       d="m 453.89821,553.01794 c 0,-2.35627 -1.91175,-4.27112 -4.27114,-4.27112 -2.35937,0 -4.26491,1.91485 -4.26491,4.27112 0,2.35628 1.90554,4.26803 4.26491,4.26803 2.35939,0 4.27114,-1.91175 4.27114,-4.26803"
       id="path704"
       style="fill:#003366;fill-opacity:1;fill-rule:nonzero;stroke:none" />
    <path
       d="m 479.41899,537.94433 c 0,-1.83404 -1.48899,-3.32302 -3.32303,-3.32302 -1.83092,0 -3.31681,1.48898 -3.31681,3.32302 0,1.83404 1.48589,3.31993 3.31681,3.31993 1.83404,0 3.32303,-1.48589 3.32303,-3.31993"
       id="path708"
       style="fill:#003366;fill-opacity:1;fill-rule:nonzero;stroke:none" />
    <path
       d="m 492.27714,523.12532 c 0,-1.30869 -1.06312,-2.37493 -2.37182,-2.37493 -1.3118,0 -2.37181,1.06624 -2.37181,2.37493 0,1.3087 1.06001,2.37181 2.37181,2.37181 1.3087,0 2.37182,-1.06311 2.37182,-2.37181"
       id="path712"
       style="fill:#003366;fill-opacity:1;fill-rule:nonzero;stroke:none" />
    <path
       d="m 492.75087,508.28921 c 0,-1.57293 -1.2745,-2.84743 -2.84741,-2.84743 -1.56981,0 -2.84431,1.2745 -2.84431,2.84743 0,1.57291 1.2745,2.84741 2.84431,2.84741 1.57291,0 2.84741,-1.2745 2.84741,-2.84741"
       id="path716"
       style="fill:#003366;fill-opacity:1;fill-rule:nonzero;stroke:none" />
    <path
       d="m 468.06319,537.94433 c 0,-2.88161 -2.33452,-5.21922 -5.21613,-5.21922 -2.88161,0 -5.21922,2.33761 -5.21922,5.21922 0,2.88163 2.33761,5.21924 5.21922,5.21924 2.88161,0 5.21613,-2.33761 5.21613,-5.21924"
       id="path720"
       style="fill:#003366;fill-opacity:1;fill-rule:nonzero;stroke:none" />
    <path
       d="m 455.79472,537.94433 c 0,-3.40695 -2.75727,-6.16734 -6.16733,-6.16734 -3.40385,0 -6.16423,2.76039 -6.16423,6.16734 0,3.40385 2.76038,6.16734 6.16423,6.16734 3.41006,0 6.16733,-2.76349 6.16733,-6.16734"
       id="path724"
       style="fill:#003366;fill-opacity:1;fill-rule:nonzero;stroke:none" />
    <path
       d="m 480.36802,523.19868 c 0,-2.35627 -1.91486,-4.27112 -4.27113,-4.27112 -2.35627,0 -4.26802,1.91485 -4.26802,4.27112 0,2.35938 1.91175,4.27113 4.26802,4.27113 2.35627,0 4.27113,-1.91175 4.27113,-4.27113"
       id="path728"
       style="fill:#003366;fill-opacity:1;fill-rule:nonzero;stroke:none" />
    <path
       d="m 469.95971,523.19868 c 0,-3.92919 -3.18004,-7.11544 -7.11234,-7.11544 -3.92918,0 -7.11543,3.18625 -7.11543,7.11544 0,3.92919 3.18625,7.11544 7.11543,7.11544 3.9323,0 7.11234,-3.18625 7.11234,-7.11544"
       id="path732"
       style="fill:#003366;fill-opacity:1;fill-rule:nonzero;stroke:none" />
    <path
       d="m 457.6928,523.19868 c 0,-4.45142 -3.60901,-8.06044 -8.06355,-8.06044 -4.45143,0 -8.06354,3.60902 -8.06354,8.06044 0,4.45454 3.61211,8.06355 8.06354,8.06355 4.45454,0 8.06355,-3.60901 8.06355,-8.06355"
       id="path736"
       style="fill:#003366;fill-opacity:1;fill-rule:nonzero;stroke:none" />
    <path
       d="m 482.26299,508.24973 c 0,-3.40696 -2.76038,-6.16734 -6.16734,-6.16734 -3.40385,0 -6.16423,2.76038 -6.16423,6.16734 0,3.40384 2.76038,6.16734 6.16423,6.16734 3.40696,0 6.16734,-2.7635 6.16734,-6.16734"
       id="path740"
       style="fill:#003366;fill-opacity:1;fill-rule:nonzero;stroke:none" />
    <path
       d="m 470.9103,508.24973 c 0,-4.45454 -3.60901,-8.06355 -8.06355,-8.06355 -4.45453,0 -8.06354,3.60901 -8.06354,8.06355 0,4.45143 3.60901,8.06044 8.06354,8.06044 4.45454,0 8.06355,-3.60901 8.06355,-8.06044"
       id="path744"
       style="fill:#003366;fill-opacity:1;fill-rule:nonzero;stroke:none" />
    <path
       d="m 458.64184,493.41392 c 0,-4.97365 -4.03489,-9.01475 -9.01477,-9.01475 -4.97676,0 -9.00853,4.0411 -9.00853,9.01475 0,4.97677 4.03177,9.01476 9.00853,9.01476 4.97988,0 9.01477,-4.03799 9.01477,-9.01476"
       id="path748"
       style="fill:#003366;fill-opacity:1;fill-rule:nonzero;stroke:none" />
    <path
       d="m 451.52671,582.69949 c 0,-1.04757 -0.85175,-1.8962 -1.89932,-1.8962 -1.04758,0 -1.8962,0.84863 -1.8962,1.8962 0,1.04448 0.84862,1.89622 1.8962,1.89622 1.04757,0 1.89932,-0.85174 1.89932,-1.89622"
       id="path752"
       style="fill:#003366;fill-opacity:1;fill-rule:nonzero;stroke:none" />
    <path
       d="m 477.28062,567.89136 c 0,-0.65279 -0.53156,-1.18435 -1.18435,-1.18435 -0.64968,0 -1.18125,0.53156 -1.18125,1.18435 0,0.64968 0.53157,1.17813 1.18125,1.17813 0.65279,0 1.18435,-0.52845 1.18435,-1.17813"
       id="path756"
       style="fill:#003366;fill-opacity:1;fill-rule:nonzero;stroke:none" />
    <path
       d="m 492.6654,493.45807 c 0,1.56981 -1.2745,2.84741 -2.84743,2.84741 -1.56981,0 -2.84431,-1.2776 -2.84431,-2.84741 0,-1.57293 1.2745,-2.84743 2.84431,-2.84743 1.57293,0 2.84743,1.2745 2.84743,2.84743"
       id="path760"
       style="fill:#003366;fill-opacity:1;fill-rule:nonzero;stroke:none" />
    <path
       d="m 482.26299,493.41703 c 0,3.40696 -2.76038,6.16734 -6.17045,6.16734 -3.40074,0 -6.16112,-2.76038 -6.16112,-6.16734 0,-3.40385 2.76038,-6.16733 6.16112,-6.16733 3.41007,0 6.17045,2.76348 6.17045,6.16733"
       id="path764"
       style="fill:#003366;fill-opacity:1;fill-rule:nonzero;stroke:none" />
    <path
       d="m 470.86522,493.41827 c 0,4.45142 -3.60901,8.06355 -8.06355,8.06355 -4.45142,0 -8.06353,-3.61213 -8.06353,-8.06355 0,-4.45452 3.61211,-8.06665 8.06353,-8.06665 4.45454,0 8.06355,3.61213 8.06355,8.06665"
       id="path768"
       style="fill:#003366;fill-opacity:1;fill-rule:nonzero;stroke:none" />
    <path
       d="m 425.4408,508.24973 c 0,-6.02746 4.88351,-10.91097 10.91407,-10.91097 6.02124,0 10.90164,4.88351 10.90164,10.91097 0,6.02434 -4.8804,10.91096 -10.90164,10.91096 -6.03056,0 -10.91407,-4.88662 -10.91407,-10.91096"
       id="path772"
       style="fill:#003366;fill-opacity:1;fill-rule:nonzero;stroke:none" />
    <path
       d="m 458.64184,508.24973 c 0,-4.97677 -4.03489,-9.01476 -9.01477,-9.01476 -4.97676,0 -9.00853,4.03799 -9.00853,9.01476 0,4.97365 4.03177,9.01165 9.00853,9.01165 4.97988,0 9.01477,-4.038 9.01477,-9.01165"
       id="path776"
       style="fill:#003366;fill-opacity:1;fill-rule:nonzero;stroke:none" />
    <path
       d="m 437.52244,596.54151 c 0,-0.6528 -0.53157,-1.18125 -1.18435,-1.18125 -0.64658,0 -1.17814,0.52845 -1.17814,1.18125 0,0.64967 0.53156,1.18123 1.17814,1.18123 0.65278,0 1.18435,-0.53156 1.18435,-1.18123"
       id="path780"
       style="fill:#003366;fill-opacity:1;fill-rule:nonzero;stroke:none" />
    <path
       d="m 415.90194,493.41361 c 0,-11.2902 9.15465,-20.44484 20.45106,-20.44484 11.29021,0 20.44175,9.15464 20.44175,20.44484 0,11.29332 -9.15154,20.44796 -20.44175,20.44796 -11.29641,0 -20.45106,-9.15464 -20.45106,-20.44796 m -71.84762,53.17867 0,-23.25806 -32.84168,0 32.84168,-42.26679 0,-19.01491 -63.95503,0 0,23.25496 30.32688,0 -32.21377,42.26989 0,19.01491 65.84192,0 z m -75.24803,-77.62606 c -5.81297,-5.81297 -11.4705,-7.85527 -19.79828,-7.85527 -8.80027,0 -16.18615,4.08461 -19.95681,7.85527 l 0,-6.91339 -25.14184,0 0,84.53976 25.76976,0 0,-50.59765 c 0,-9.58672 6.91339,-11.62903 10.37009,-11.62903 4.40169,0 6.75795,1.88687 9.27276,4.39857 l 19.48432,-19.79826 z"
       id="path784"
       style="fill:#ff9900;fill-opacity:1;fill-rule:nonzero;stroke:none" />
  </g>
</svg>
